<svg xmlns="http://www.w3.org/2000/svg" viewBox="0 0 88.07 59.05"><defs><style>.cls-1{fill:#46b8e9;}</style></defs><title>brandmarkAsset 1</title><g id="Layer_2" data-name="Layer 2"><g id="Layer_1-2" data-name="Layer 1"><path d="M85.15,24.66,81,25.21l.47.74c.92,1.44,1,2.92.25,3.31L39.09,50.34c-2.34,1.16-5.42-.1-6.77-2.82L13.47,9.45c-1.11-2.25.15-4.16,2.71-4.29L65,2.75c.94,0,2.35,1,3.17,2.25l2.62,4.12,1.54.93a3.12,3.12,0,0,1,2.13-2.11L71.39,3.16C70.25,1.37,68.29,0,67,0L5.62,1.85C1.3,2-1.11,4.88.5,8.39l21,45.7a8.16,8.16,0,0,0,11.13,4.08L85.92,29.88c1.08-.57.87-2.66-.41-4.67Zm-64,12.77-.32.1a3.42,3.42,0,0,1-4-1.74L11.16,23.74a2,2,0,0,1,1.64-2.91l.33-.06a3.75,3.75,0,0,1,3.81,1.87l5.62,11.49A2.29,2.29,0,0,1,21.16,37.43Z"/><path class="cls-1" d="M87.57,21l-8.72-5.26a1.62,1.62,0,0,0,0-.33l-.19-4.61A1.62,1.62,0,0,0,77,9.24l-1.75.07A1.62,1.62,0,0,0,73.7,11l.07,1.68-4.33-2.61A1,1,0,0,0,69,9.92L37.94,6.35a1,1,0,0,0-1,.53L30.53,18.6a1,1,0,0,0,1.7,1.15l6.52-7.84a1,1,0,0,1,1.4-.17L60,26.18a1,1,0,0,0,.74.19l26.43-3.48A1,1,0,0,0,87.57,21Z"/><path class="cls-1" d="M40.48,23.74l6,.57-.19-4.61A1.3,1.3,0,0,0,45,18.43l-4.75.08Z"/><path class="cls-1" d="M39.47,23.64l-.21-5.12-3.86.06a.91.91,0,0,0-.77,1l.15,3.57Z"/><path class="cls-1" d="M40.52,24.75,40.73,30l4.8,1a1,1,0,0,0,1.18-1l-.19-4.61Z"/><path class="cls-1" d="M39.51,24.65l-4.69-.44L35,27.78a1.27,1.27,0,0,0,.86,1.2l3.89.8Z"/></g></g></svg>