<svg xmlns="http://www.w3.org/2000/svg" viewBox="0 0 236.71 72.66"><defs><style>.cls-1{fill:#46b8e9;}</style></defs><title>Asset 1</title><g id="Layer_2" data-name="Layer 2"><g id="Layer_1-2" data-name="Layer 1"><path d="M110.58,28.79l-8.07-11.91H96.17V28.79H93.71V0h10.75c5,0,8.76,3.15,8.76,8.42a7.93,7.93,0,0,1-8,8.29l8.33,12.09Zm0-20.38c0-3.63-2.59-6.17-6.39-6.17H96.17V14.63h8.07A6,6,0,0,0,110.63,8.42Z"/><path d="M119.35,28.79V0h18.26V2.24h-15.8V12.91h15.5v2.25h-15.5v11.4h15.8v2.25Z"/><path d="M164.55,28.79l-2.85-7.08H146.46l-2.85,7.08h-2.85L152.55,0h3.06L167.4,28.79ZM154.06,2.63l-6.78,16.83h13.6Z"/><path d="M171.63,28.79V0h2.46V26.55H188v2.25Z"/><path d="M196.41,28.79V2.24H187V0h21.32V2.24h-9.41V28.79Z"/><path d="M221.92,28.79V16.49L210.49,0h3l9.71,14.16L232.89,0h3L224.43,16.49v12.3Z"/><path class="cls-1" d="M93.78,72V33.29h28.35V42H103.76v6h18v8.7h-18V72Z"/><path class="cls-1" d="M127.53,72V33.29h10v30H153V72Z"/><path class="cls-1" d="M156.92,56.31v-23h10.15V56c0,4.58,2.73,7.88,8.18,7.88s8.12-3.3,8.12-7.88V33.29h10.09v23c0,9.63-5.86,16.41-18.21,16.41S156.92,65.82,156.92,56.31Z"/><path class="cls-1" d="M224.94,72l-8.41-13-8.41,13H196.3l13.51-19.83L197.17,33.29h11.77l7.6,12.12L224,33.29h11.83L223.26,52.08,236.71,72Z"/><path d="M85.15,35.2,81,35.75l.47.74c.92,1.44,1,2.92.25,3.31L39.09,60.88c-2.34,1.16-5.42-.1-6.77-2.82L13.47,20c-1.11-2.25.15-4.16,2.71-4.29L65,13.29c.94,0,2.35,1,3.17,2.25l2.62,4.12,1.54.93a3.12,3.12,0,0,1,2.13-2.11L71.39,13.7c-1.14-1.79-3.1-3.2-4.42-3.16L5.62,12.39c-4.31.13-6.72,3-5.11,6.54l21,45.7a8.16,8.16,0,0,0,11.13,4.08L85.92,40.42c1.08-.57.87-2.66-.41-4.67ZM21.16,48l-.32.1a3.42,3.42,0,0,1-4-1.74L11.16,34.28a2,2,0,0,1,1.64-2.91l.33-.06a3.75,3.75,0,0,1,3.81,1.87l5.62,11.49A2.29,2.29,0,0,1,21.16,48Z"/><path class="cls-1" d="M87.57,31.53l-8.72-5.26a1.62,1.62,0,0,0,0-.33l-.19-4.61A1.62,1.62,0,0,0,77,19.78l-1.75.07a1.62,1.62,0,0,0-1.55,1.68l.07,1.68L69.43,20.6a1,1,0,0,0-.42-.14L37.94,16.89a1,1,0,0,0-1,.53L30.53,29.14a1,1,0,0,0,1.7,1.15l6.52-7.84a1,1,0,0,1,1.4-.17L60,36.72a1,1,0,0,0,.74.19l26.43-3.48A1,1,0,0,0,87.57,31.53Z"/><path class="cls-1" d="M40.48,34.28l6,.57-.19-4.61A1.3,1.3,0,0,0,45,29L40.26,29Z"/><path class="cls-1" d="M39.47,34.18l-.21-5.12-3.86.06a.91.91,0,0,0-.77,1l.15,3.57Z"/><path class="cls-1" d="M40.52,35.29l.22,5.23,4.8,1a1,1,0,0,0,1.18-1l-.19-4.61Z"/><path class="cls-1" d="M39.51,35.19l-4.69-.44L35,38.32a1.27,1.27,0,0,0,.86,1.2l3.89.8Z"/></g></g></svg>